#!OML:ASF F:\VICON\USERDATA\INSTALL\rory3\rory3.ASF
:FULLY-SPECIFIED
:DEGREES
69
root 0.24353550791229586 17.5983848358165 37.119891176696086 -1.0686030427761652 -6.464948734208939 -7.266815743890662
lfemur -23.02411549206595 -4.72110669055319 -10.062495975433723
ltibia 18.318106194363395
lfoot -2.6551200697945827 4.093207187721356
ltoes -0.8243705903499983
rfemur 10.32684611904787 6.265502722642177 33.97186843985898
rtibia 28.164923301655524
rfoot -17.33595820976246 -2.1654961579770635
rtoes -4.95027511448529
lowerback 8.773338542464156 2.953512221541828 6.976245684311447
upperback 0.357950000566714 4.718351575310431 1.954647673154994
thorax -4.406245575017675 2.2154373727192347 -2.1475820982283222
lowerneck -16.902704836258025 -3.113503081125685 -1.647507004664623
upperneck 20.16480690549897 -4.150683421997174 1.5753158095497302
head 9.11975545123315 -1.9122083429383405 0.27557110428987763
lclavicle -2.3084883932028298e-15 -9.003243630165383e-17
lhumerus -37.095729481970295 11.267696862020816 79.61392451155908
lradius 16.64670307584123
lwrist -1.5538308008993846
lhand -26.59061810542321 24.317453932851002
lfingers 7.1250199999999975
lthumb -0.024623948400142148 54.29531308691663
rclavicle -2.3084883932028298e-15 -9.003243630165383e-17
rhumerus -22.463755417728336 -11.154552206366056 -81.66203431287087
rradius 29.223966935429825
rwrist 1.8898956895196228
rhand -18.26290585923254 24.111554461516842
rfingers 7.1250199999999975
rthumb 8.0165108007632 -5.66572222829346
70
root 0.36022190839682516 17.607403962260758 36.91292609323125 -1.7376791829002087 -6.061874108903717 -6.080844727069249
lfemur -22.846360658896515 -3.693984219987102 -12.908538886385797
ltibia 23.347606901169883
lfoot -2.1259430028172304 0.4286225822079772
ltoes 0.6386958268503036
rfemur 9.756141373805319 5.420022341688279 31.584758344346636
rtibia 34.77239278375882
rfoot -9.213047853546536 0.5342092481407308
rtoes -4.429035366462795
lowerback 8.75833974921095 2.9650600285131565 5.960565589735075
upperback 0.33981123791644824 4.6083928357690525 1.5644266424968252
thorax -4.449030111391529 2.1790730408691523 -2.020450913299239
lowerneck -16.755656704160042 -3.2491057945113093 -1.7089020915847704
upperneck 20.369229938526477 -4.342046512369609 1.679195183673794
head 9.178160042425612 -1.9902178366025947 0.2820099958896982
lclavicle -2.565303137377619e-15 -2.613308937047618e-16
lhumerus -38.099243798156245 12.198689862610772 78.9009628685468
lradius 15.742231180685451
lwrist -2.609801895973053
lhand -25.634663138270874 24.788385592218354
lfingers 7.1250199999999975
lthumb 0.89858996665669 54.76235178902496
rclavicle -2.565303137377619e-15 -2.613308937047618e-16
rhumerus -23.267430566846464 -12.389261667245583 -81.56075139694715
rradius 29.19656464608212
rwrist 2.381009259382272
rhand -18.311430630559986 24.062050733630837
rfingers 7.1250199999999975
rthumb 7.969680504378757 -5.797939055318626
71
root 0.4971253608562758 17.661426078062664 37.10890460277542 -2.520531439444812 -5.8774747357294554 -4.599741121676134
lfemur -21.641023334573017 -2.7479822990404466 -16.099741363998238
ltibia 28.398227856606105
lfoot -2.704440044125399 -1.9714908099248327
ltoes 1.8851078576669242
rfemur 6.672744863814218 4.3490561922383515 28.707825861771656
rtibia 43.77014288921195
rfoot 0.9425509575070432 1.9547501195935855
rtoes -0.08292220180755727
lowerback 8.895944317230356 2.9494840353531155 4.635533038935969
upperback 0.3462473460578498 4.437023840230542 1.126353436335445
thorax -4.547186710932496 2.1159628584040653 -1.7611913559539083
lowerneck -16.642915479396493 -3.2950326973082618 -1.8231819067758281
upperneck 20.57183222448136 -4.401060657886295 1.7417416006504909
head 9.24221020297412 -2.0149863400046293 0.30765916376513713
lclavicle -2.7573238793505242e-15 -3.894109879857645e-16
lhumerus -38.58401133338221 12.197781974893086 78.73048783221094
lradius 15.76145209209906
lwrist -2.0903328053351498
lhand -25.213016608907978 25.0914894053611
lfingers 7.1250199999999975
lthumb 1.3057643086548736 55.057202289020594
rclavicle -2.7573238793505242e-15 -3.894109879857645e-16
rhumerus -24.402295323927948 -13.6815254480507 -81.43772311158088
rradius 28.996349021629033
rwrist 3.0254394655877754
rhand -18.193259164584685 23.955371080865024
rfingers 7.1250199999999975
rthumb 8.083747003027598 -5.922458918132547
72
root 0.6241841005561238 17.73524957151335 37.980301979432795 -3.2229230995926326 -5.97184354697951 -3.0028838462949365
lfemur -19.109895839901903 -2.3458976540114946 -18.92642632139055
ltibia 31.115501928703484
lfoot -4.409307460545431 -2.1041144668228218
ltoes 2.5710492378233485
rfemur 1.4397797639446797 3.2097150097366214 25.915996484573874
rtibia 53.826911598557245
rfoot 8.926529647239827 0.8962036352893472
rtoes 6.153159366823456
lowerback 9.189100853444385 2.8941747966973765 3.1819978070554855
upperback 0.42429330750878835 4.207086242943221 0.7430217617850572
thorax -4.665955042593684 2.0257575389632176 -1.3464759829800652
lowerneck -16.606312367574947 -3.205568510502661 -1.9368208843774115
upperneck 20.640784863039546 -4.27080153536377 1.730887190991739
head 9.266313053253151 -1.9613092395990361 0.34400999931158827
lclavicle -2.7777326859195075e-15 -4.0302389886997364e-16
lhumerus -38.265225418161315 11.250965136090002 79.27281639119327
lradius 16.57669086963459
lwrist -0.13060284502868846
lhand -25.86568197914767 24.681614089090232
lfingers 7.1250199999999975
lthumb 0.6754136541839514 54.639072716053406
rclavicle -2.7777326859195075e-15 -4.0302389886997364e-16
rhumerus -25.34735320365123 -14.775725316411947 -81.24621658518869
rradius 28.537778011367383
rwrist 3.9955220477132976
rhand -17.938345429248486 23.77962040091157
rfingers 7.1250199999999975
rthumb 8.32980696236211 -6.075234551558272
